<svg xmlns="http://www.w3.org/2000/svg" xmlns:xlink="http://www.w3.org/1999/xlink" width="256" zoomAndPan="magnify" viewBox="0 0 192 191.999996" height="256" preserveAspectRatio="xMidYMid meet" version="1.0"><defs><clipPath id="497739d389"><path d="M 14.066406 13.027344 L 177.566406 13.027344 L 177.566406 178.777344 L 14.066406 178.777344 Z M 14.066406 13.027344 " clip-rule="nonzero"/></clipPath></defs><g clip-path="url(#497739d389)"><path fill="#184e77" d="M 174.796875 90.195312 L 105.300781 16.996094 C 104.082031 15.722656 102.664062 14.734375 101.042969 14.039062 C 99.421875 13.34375 97.730469 12.992188 95.96875 12.992188 C 94.203125 12.984375 92.507812 13.328125 90.886719 14.023438 C 89.261719 14.722656 87.847656 15.710938 86.636719 16.996094 C 63.476562 41.402344 40.3125 65.808594 17.144531 90.214844 C 16.5625 90.828125 16.082031 91.507812 15.703125 92.261719 C 15.320312 93.011719 15.054688 93.804688 14.90625 94.632812 C 14.757812 95.460938 14.734375 96.296875 14.828125 97.132812 C 14.925781 97.96875 15.140625 98.777344 15.472656 99.550781 C 15.804688 100.324219 16.242188 101.035156 16.785156 101.679688 C 17.324219 102.328125 17.945312 102.882812 18.652344 103.347656 C 19.355469 103.808594 20.109375 104.164062 20.917969 104.402344 C 21.726562 104.644531 22.550781 104.765625 23.394531 104.765625 L 26.992188 104.765625 L 26.992188 165.914062 C 26.992188 166.765625 27.078125 167.613281 27.246094 168.453125 C 27.414062 169.289062 27.660156 170.101562 27.988281 170.890625 C 28.316406 171.683594 28.714844 172.433594 29.191406 173.140625 C 29.667969 173.851562 30.207031 174.511719 30.808594 175.113281 C 31.414062 175.71875 32.070312 176.257812 32.78125 176.734375 C 33.492188 177.207031 34.242188 177.609375 35.03125 177.9375 C 35.820312 178.265625 36.636719 178.511719 37.472656 178.679688 C 38.3125 178.847656 39.15625 178.933594 40.011719 178.933594 L 151.925781 178.933594 C 152.78125 178.933594 153.628906 178.847656 154.464844 178.679688 C 155.304688 178.511719 156.117188 178.265625 156.90625 177.9375 C 157.695312 177.609375 158.445312 177.207031 159.15625 176.730469 C 159.867188 176.257812 160.523438 175.71875 161.128906 175.113281 C 161.730469 174.507812 162.273438 173.851562 162.746094 173.140625 C 163.222656 172.429688 163.625 171.679688 163.949219 170.890625 C 164.277344 170.101562 164.527344 169.289062 164.695312 168.449219 C 164.863281 167.613281 164.945312 166.765625 164.949219 165.914062 L 164.949219 104.746094 L 168.542969 104.746094 C 169.386719 104.746094 170.210938 104.625 171.019531 104.386719 C 171.828125 104.144531 172.582031 103.789062 173.285156 103.328125 C 173.992188 102.863281 174.613281 102.308594 175.152344 101.664062 C 175.695312 101.015625 176.132812 100.304688 176.464844 99.53125 C 176.796875 98.757812 177.011719 97.949219 177.109375 97.113281 C 177.203125 96.277344 177.179688 95.441406 177.03125 94.613281 C 176.882812 93.78125 176.617188 92.992188 176.234375 92.242188 C 175.855469 91.488281 175.375 90.808594 174.792969 90.195312 Z M 74.546875 171.117188 L 74.546875 109.320312 C 74.546875 108.902344 74.625 108.496094 74.785156 108.113281 C 74.945312 107.726562 75.171875 107.382812 75.46875 107.089844 C 75.765625 106.792969 76.105469 106.566406 76.492188 106.40625 C 76.878906 106.246094 77.28125 106.164062 77.699219 106.164062 L 114.238281 106.164062 C 114.65625 106.164062 115.058594 106.246094 115.441406 106.40625 C 115.828125 106.566406 116.171875 106.792969 116.464844 107.089844 C 116.761719 107.382812 116.988281 107.726562 117.148438 108.113281 C 117.308594 108.5 117.390625 108.902344 117.386719 109.320312 L 117.386719 171.117188 Z M 168.546875 97.0625 L 161.109375 97.0625 C 160.601562 97.0625 160.109375 97.160156 159.640625 97.355469 C 159.167969 97.550781 158.753906 97.828125 158.390625 98.1875 C 158.03125 98.546875 157.753906 98.964844 157.558594 99.433594 C 157.363281 99.90625 157.265625 100.394531 157.265625 100.90625 L 157.265625 165.910156 C 157.265625 166.261719 157.230469 166.609375 157.160156 166.953125 C 157.089844 167.296875 156.988281 167.628906 156.855469 167.953125 C 156.71875 168.277344 156.554688 168.582031 156.359375 168.875 C 156.167969 169.164062 155.945312 169.433594 155.699219 169.683594 C 155.449219 169.929688 155.179688 170.152344 154.890625 170.347656 C 154.597656 170.542969 154.289062 170.707031 153.96875 170.839844 C 153.644531 170.976562 153.3125 171.078125 152.96875 171.148438 C 152.625 171.214844 152.277344 171.25 151.925781 171.253906 L 125.074219 171.253906 L 125.074219 109.320312 C 125.074219 108.605469 125.003906 107.902344 124.863281 107.207031 C 124.726562 106.507812 124.519531 105.828125 124.25 105.171875 C 123.976562 104.515625 123.640625 103.890625 123.246094 103.300781 C 122.851562 102.707031 122.402344 102.160156 121.898438 101.660156 C 121.398438 101.15625 120.851562 100.707031 120.257812 100.3125 C 119.667969 99.914062 119.042969 99.582031 118.386719 99.308594 C 117.726562 99.039062 117.050781 98.832031 116.351562 98.695312 C 115.65625 98.554688 114.949219 98.484375 114.238281 98.484375 L 77.699219 98.484375 C 76.988281 98.484375 76.28125 98.554688 75.585938 98.695312 C 74.886719 98.832031 74.210938 99.039062 73.554688 99.308594 C 72.894531 99.582031 72.273438 99.914062 71.679688 100.3125 C 71.089844 100.707031 70.542969 101.15625 70.039062 101.660156 C 69.535156 102.160156 69.085938 102.707031 68.691406 103.300781 C 68.296875 103.890625 67.960938 104.515625 67.691406 105.171875 C 67.417969 105.832031 67.210938 106.507812 67.074219 107.207031 C 66.933594 107.902344 66.867188 108.605469 66.867188 109.320312 L 66.867188 171.257812 L 40.007812 171.257812 C 39.65625 171.257812 39.3125 171.21875 38.96875 171.152344 C 38.625 171.082031 38.289062 170.980469 37.96875 170.84375 C 37.644531 170.710938 37.335938 170.546875 37.046875 170.351562 C 36.753906 170.15625 36.484375 169.933594 36.238281 169.6875 C 35.988281 169.4375 35.769531 169.167969 35.574219 168.878906 C 35.378906 168.585938 35.214844 168.28125 35.078125 167.957031 C 34.945312 167.632812 34.84375 167.300781 34.773438 166.957031 C 34.703125 166.613281 34.667969 166.265625 34.667969 165.914062 L 34.667969 100.925781 C 34.667969 100.414062 34.570312 99.925781 34.375 99.453125 C 34.179688 98.984375 33.902344 98.566406 33.542969 98.207031 C 33.183594 97.847656 32.765625 97.570312 32.296875 97.375 C 31.824219 97.179688 31.335938 97.082031 30.824219 97.082031 L 23.386719 97.082031 C 23.199219 97.082031 23.027344 97.03125 22.871094 96.925781 C 22.71875 96.824219 22.601562 96.6875 22.53125 96.515625 C 22.457031 96.34375 22.4375 96.167969 22.46875 95.984375 C 22.503906 95.800781 22.582031 95.640625 22.710938 95.507812 C 45.886719 71.101562 69.050781 46.695312 92.210938 22.289062 C 92.457031 22.039062 92.722656 21.820312 93.015625 21.625 C 93.304688 21.429688 93.609375 21.265625 93.933594 21.132812 C 94.253906 21 94.589844 20.898438 94.929688 20.828125 C 95.273438 20.761719 95.617188 20.726562 95.96875 20.726562 C 96.316406 20.726562 96.664062 20.761719 97.003906 20.828125 C 97.347656 20.898438 97.679688 21 98.003906 21.132812 C 98.324219 21.265625 98.632812 21.429688 98.921875 21.625 C 99.210938 21.820312 99.480469 22.039062 99.726562 22.289062 L 169.226562 95.488281 C 169.457031 95.703125 169.539062 95.96875 169.472656 96.277344 C 169.4375 96.503906 169.332031 96.695312 169.15625 96.84375 C 168.980469 96.992188 168.777344 97.066406 168.546875 97.0625 Z M 168.546875 97.0625 " fill-opacity="1" fill-rule="nonzero"/></g></svg>